<svg xmlns="http://www.w3.org/2000/svg" width="24.03" height="31.5" viewBox="0 0 24.03 31.5">
  <defs>
    <style>
      .cls-1 {
        fill: #f7b7bc;
        fill-rule: evenodd;
      }
    </style>
  </defs>
  <path id="pinterest" class="cls-1" d="M1270.26,792.77a3.663,3.663,0,0,0,2.52,1.89c1.67,0.2,6.2-2.86,6.3-8.19s-1.01-6.861-5.67-8.19a7.879,7.879,0,0,0-10.08,5.04c-1.66,4.647-.3,5.771.63,6.93l-0.63,3.15s-4.52-1.532-4.41-6.3,2.83-11.981,12.6-11.981c9.67,0,12.02,9.253,11.34,12.611s-1.23,7.9-8.19,9.45c0,0-4.62,1.213-5.67-2.52v-3.78Zm-3.78-3.78s-1.73-6.158,2.52-6.93c0,0,3.44-.825,2.52,3.78,0,0-3.32,14.5-4.41,16.38a42.189,42.189,0,0,1-3.15,4.391s0.59-5.662.63-6.911C1264.65,797.772,1266.48,788.99,1266.48,788.99Z" transform="translate(-1258.91 -775.125)"/>
</svg>
