<svg xmlns="http://www.w3.org/2000/svg" width="31.5" height="29.625" viewBox="0 0 31.5 29.625">
  <defs>
    <style>
      .cls-1 {
        fill: #f7b7bc;
        fill-rule: evenodd;
      }
    </style>
  </defs>
  <path id="linkedin_" data-name="linkedin " class="cls-1" d="M1336.41,785.924s2.05-4,6.3-3.7,7.34,3.072,7.56,9.253l-6.3-1.234s-0.66-2.6-3.15-2.467-3.27.493-4.41,1.85S1336.41,785.924,1336.41,785.924Zm-17.01-2.874h6.3v19.53h-6.3V783.05Zm10.71,0h6.3v19.53h-6.3V783.05Zm13.86,6.917h6.31v12.6h-6.31v-12.6Zm-21.41-16.987a3.769,3.769,0,1,1-3.78,3.768A3.773,3.773,0,0,1,1322.56,772.98Z" transform="translate(-1318.78 -772.969)"/>
</svg>
