<svg xmlns="http://www.w3.org/2000/svg" width="31.5" height="22.688" viewBox="0 0 31.5 22.688">
  <defs>
    <style>
      .cls-1 {
        fill: #f7b7bc;
        fill-rule: evenodd;
      }
    </style>
  </defs>
  <path id="youtube" class="cls-1" d="M1215.82,778.909h-0.02s-6.61,0-11.02.326a4.435,4.435,0,0,0-3.15,1.366,7.057,7.057,0,0,0-1.26,3.2,50.689,50.689,0,0,0-.31,5.219v2.446a50.689,50.689,0,0,0,.31,5.219,7.053,7.053,0,0,0,1.26,3.2,5.248,5.248,0,0,0,3.47,1.379c2.52,0.247,10.71.324,10.71,0.324h0s6.62-.011,11.03-0.337a4.446,4.446,0,0,0,3.15-1.366,6.994,6.994,0,0,0,1.25-3.2,49.128,49.128,0,0,0,.32-5.219v-2.446a49.128,49.128,0,0,0-.32-5.219,7,7,0,0,0-1.25-3.2,4.45,4.45,0,0,0-3.15-1.366c-4.41-.326-11.02-0.326-11.02-0.326m-3.16,6.931,8.23,4.248-8.23,4.572v-8.82Z" transform="translate(-1200.06 -778.906)"/>
</svg>
