<svg id="Layer_1" data-name="Layer 1" xmlns="http://www.w3.org/2000/svg" width="128" height="76" viewBox="0 0 128 76"><defs><style>.cls-1{fill:#fff;}</style></defs><title>icon-contact-white</title><path class="cls-1" d="M49,41.11,5.07,75.34A8.74,8.74,0,0,1,3,69.81V11.69A8.69,8.69,0,0,1,4.58,6.82c3.43,2.8,8,6.43,13.31,10.58,3.13,2.47,6.54,5.13,10.17,7.89S35.49,31,39.48,34C42.58,36.3,45.74,38.71,49,41.11Z" transform="translate(-3 -3)"/><path class="cls-1" d="M81.21,44l47.12,32.13A8.9,8.9,0,0,1,122.14,79H11.88a8.93,8.93,0,0,1-6.18-2.82l47.1-32-.17-.3c.77.56,1.54,1.1,2.31,1.67l1.59,1.15.79.58.89.6a16.19,16.19,0,0,0,17.57,0l.95-.64.79-.59,1.59-1.17,2.28-1.67Z" transform="translate(-3 -3)"/><path class="cls-1" d="M19.51,15.25c-5.57-3.77-10.41-7-14.12-9.36A8.73,8.73,0,0,1,11.88,3H122.14a8.64,8.64,0,0,1,6.47,2.9c-3.72,2.41-8.54,5.58-14.11,9.34-3.3,2.23-6.88,4.63-10.62,7.24s-7.71,5.3-11.77,8.18-8.29,5.79-12.52,8.85l-3.18,2.3L74.81,43l-.79.58-.71.47a12.05,12.05,0,0,1-12.56,0L60,43.56,59.2,43l-1.6-1.16-3.19-2.29c-4.23-3.06-8.45-6-12.5-8.85s-8-5.59-11.78-8.18S22.8,17.47,19.51,15.25Z" transform="translate(-3 -3)"/><path class="cls-1" d="M131,11.69V69.81a8.71,8.71,0,0,1-2.07,5.52L85.09,41.11c3.24-2.4,6.37-4.81,9.46-7.13,4-3,7.78-5.91,11.4-8.69s7-5.42,10.14-7.88c5.31-4.16,9.91-7.79,13.34-10.58A8.7,8.7,0,0,1,131,11.69Z" transform="translate(-3 -3)"/></svg>