<svg xmlns="http://www.w3.org/2000/svg" width="39.68" height="23.937" viewBox="0 0 39.68 23.937">
  <defs>
    <style>
      .cls-1 {
        fill: #f7b7bc;
        fill-rule: evenodd;
      }
    </style>
  </defs>
  <path id="google_" data-name="google + " class="cls-1" d="M1345.94,740.017h3.8v12.6h-3.8v-12.6Zm-4.41,4.416h12.6v3.8h-12.6v-3.8Zm-15.12-9.45a11.967,11.967,0,1,1-11.97,11.967A11.969,11.969,0,0,1,1326.41,734.983Zm0.01,4.417a7.56,7.56,0,1,1-7.56,7.56A7.564,7.564,0,0,1,1326.42,739.4Zm0,5.04h10.08l1.89,3.78h-11.97v-3.78Zm4.41-3.15,7.56-5.67,0.63,8.82h-8.19v-3.15Z" transform="translate(-1314.44 -734.969)"/>
</svg>
