<svg id="Layer_1" data-name="Layer 1" xmlns="http://www.w3.org/2000/svg" width="93.54" height="112.49" viewBox="0 0 93.54 112.49"><defs><style>.cls-1{fill:#fff;}</style></defs><title>icon-faq-white</title><path class="cls-1" d="M62.5,92,44.63,115.86c-1.55,2.16-5.63,1-5.63-1.65V92Z" transform="translate(-4.5 -4.5)"/><path class="cls-1" d="M51.27,4.5A46.77,46.77,0,1,0,98,51.27,46.77,46.77,0,0,0,51.27,4.5Zm1.21,80.39a4.63,4.63,0,0,1-6.49,0,4.34,4.34,0,0,1-1.38-3.25A4.25,4.25,0,0,1,46,78.4a4.53,4.53,0,0,1,6.49,0,4.27,4.27,0,0,1,1.37,3.24A4.37,4.37,0,0,1,52.48,84.89Zm12-41.47a19.51,19.51,0,0,1-2.72,4.43,35.38,35.38,0,0,1-3.55,3.76c-1.28,1.17-2.47,2.32-3.55,3.48a19,19,0,0,0-2.73,3.6,8.13,8.13,0,0,0-1.08,4.12,9.24,9.24,0,0,0,.46,3c.31,1,.61,1.18.92,2.18h-6.7a22.69,22.69,0,0,1-.66-2.34,18,18,0,0,1-.29-3.21,10.23,10.23,0,0,1,1.05-4.69,19.86,19.86,0,0,1,2.64-4,41.17,41.17,0,0,1,3.45-3.57c1.25-1.15,2.4-2.29,3.45-3.48a19.51,19.51,0,0,0,2.64-3.69,8.6,8.6,0,0,0,1.06-4.26,7.84,7.84,0,0,0-.77-3.54A7.56,7.56,0,0,0,56,32.69a9.23,9.23,0,0,0-3.08-1.56,13.16,13.16,0,0,0-3.71-.52A15.48,15.48,0,0,0,37,36.14V28.82c5-2.66,8.64-4,13.19-4a20.71,20.71,0,0,1,5.94.82A14.79,14.79,0,0,1,61,28.13a11.83,11.83,0,0,1,3.31,4.1,12.85,12.85,0,0,1,1.21,5.7A13.25,13.25,0,0,1,64.45,43.42Z" transform="translate(-4.5 -4.5)"/></svg>