<svg id="Layer_1" data-name="Layer 1" xmlns="http://www.w3.org/2000/svg" width="141.16" height="143.17" viewBox="0 0 141.16 143.17"><defs><style>.cls-1{fill:#fff;}.cls-2{fill:none;stroke:#fff;stroke-miterlimit:10;stroke-width:5px;}</style></defs><title>icon-telephone</title><path class="cls-1" d="M67.24,105.14v40.7a6.23,6.23,0,0,1-6.88,6.2c-15.34-1.63-26.88-9.17-26.88-26.55S45,100.57,60.36,98.94A6.23,6.23,0,0,1,67.24,105.14Z" transform="translate(-33.48 -33.4)"/><path class="cls-2" d="M54.65,110.23V84.55c0-26.87,22.13-48.65,49-48.65s49,21.78,49,48.65v25.68" transform="translate(-33.48 -33.4)"/><path class="cls-2" d="M122.57,167.31c12.83-2.16,22.78-6.59,28.14-15.66,2.46-4.15.79-4.24,1.15-10.57" transform="translate(-33.48 -33.4)"/><path class="cls-1" d="M147.77,98.94a6.24,6.24,0,0,0-6.88,6.21v40.69a6.24,6.24,0,0,0,6.88,6.21c15.35-1.63,26.88-9.17,26.88-26.56S163.11,100.57,147.77,98.94Zm9.49,39.25s-14.81-13-9.18-19c4-4.21,9.09,1.45,9.09,1.45s5.07-5.71,9.09-1.53C171.93,125,157.26,138.19,157.26,138.19Z" transform="translate(-33.48 -33.4)"/><circle class="cls-1" cx="84.29" cy="133.92" r="9.25"/></svg>