<svg id="Layer_1" data-name="Layer 1" xmlns="http://www.w3.org/2000/svg" width="67.72" height="113.41" viewBox="0 0 67.72 113.41"><defs><style>.cls-1{fill:#fff;}</style></defs><title>icon-policies-white</title><path class="cls-1" d="M64.07,8.67H57.28a1.72,1.72,0,0,1,0,.21V12.1h6.78a2.64,2.64,0,0,1,2.64,2.64v95a2.64,2.64,0,0,1-2.64,2.64H8.49a2.64,2.64,0,0,1-2.64-2.64v-95A2.64,2.64,0,0,1,8.49,12.1h6V8.88a1.72,1.72,0,0,1,0-.21h-6a6.07,6.07,0,0,0-6.07,6.07v95a6.07,6.07,0,0,0,6.07,6.07H64.07a6.07,6.07,0,0,0,6.07-6.07v-95A6.07,6.07,0,0,0,64.07,8.67Z" transform="translate(-2.42 -2.42)"/><path class="cls-1" d="M63,15.67H57.29A3.51,3.51,0,0,1,53.8,19H17.94a3.51,3.51,0,0,1-3.5-3.3H9.56a.89.89,0,0,0-.89.89v91.37a.89.89,0,0,0,.89.89H63a.89.89,0,0,0,.89-.89V16.56A.89.89,0,0,0,63,15.67ZM56,35.61H16.55v-3H56Zm0,15.66H16.55v-3H56Zm0,15.66H16.55v-3H56ZM56,82.6H16.55v-3H56Zm0,15.66H16.55v-3H56Z" transform="translate(-2.42 -2.42)"/><path class="cls-1" d="M55.65,8.39v7.08a1.72,1.72,0,0,1,0,.21,1.86,1.86,0,0,1-1.85,1.65H17.94a1.86,1.86,0,0,1-1.85-1.65,1.72,1.72,0,0,1,0-.21V8.39a1.72,1.72,0,0,1,0-.21,1.86,1.86,0,0,1,1.85-1.65H31.75V4.27A1.86,1.86,0,0,1,33.6,2.42h4.53A1.86,1.86,0,0,1,40,4.27V6.54H53.8a1.86,1.86,0,0,1,1.85,1.65A1.72,1.72,0,0,1,55.65,8.39Z" transform="translate(-2.42 -2.42)"/><path class="cls-1" d="M55.65,8.39v7.08a1.72,1.72,0,0,1,0,.21,1.86,1.86,0,0,1-1.85,1.65H17.94a1.86,1.86,0,0,1-1.85-1.65,1.72,1.72,0,0,1,0-.21V8.39a1.72,1.72,0,0,1,0-.21,1.86,1.86,0,0,1,1.85-1.65H31.75V4.27A1.86,1.86,0,0,1,33.6,2.42h4.53A1.86,1.86,0,0,1,40,4.27V6.54H53.8a1.86,1.86,0,0,1,1.85,1.65A1.72,1.72,0,0,1,55.65,8.39Z" transform="translate(-2.42 -2.42)"/></svg>