<svg id="Layer_1" data-name="Layer 1" xmlns="http://www.w3.org/2000/svg" width="128.09" height="116.65" viewBox="0 0 128.09 116.65"><defs><style>.cls-1{fill:none;stroke:#fff;stroke-linecap:round;stroke-miterlimit:10;stroke-width:5px;}.cls-2{fill:#fff;}</style></defs><title>icon-shipping-white</title><path class="cls-1" d="M118,75.31,96.13,97.23c-1.76,1.76-5.27,1.09-7.84-1.48L15.75,23.22C13.17,20.64,9.66,20,7.9,21.74L3,26.69" transform="translate(-0.45 -3.42)"/><circle class="cls-1" cx="70.6" cy="104.2" r="9.95"/><path class="cls-2" d="M60.73,5.21a5.6,5.6,0,0,0-1.43,5.57c.18.63-.06.87-.7.7A5.63,5.63,0,0,0,53,12.93a6.34,6.34,0,0,0,.14,9,6.6,6.6,0,0,0,1.58,1.17A18.54,18.54,0,0,0,63,24.83a47.63,47.63,0,0,0,7.79-.51A1.71,1.71,0,0,0,72.13,23a47.81,47.81,0,0,0,.51-7.79,18.51,18.51,0,0,0-1.78-8.26,6.55,6.55,0,0,0-1.17-1.58A6.34,6.34,0,0,0,60.73,5.21Z" transform="translate(-0.45 -3.42)"/><path class="cls-2" d="M96.73,42.43,110.3,28.87a2.74,2.74,0,0,1,3.88,0l13.56,13.56a2.74,2.74,0,0,1,0,3.88L114.17,59.87a2.74,2.74,0,0,1-3.88,0L96.73,46.31A2.74,2.74,0,0,1,96.73,42.43Z" transform="translate(-0.45 -3.42)"/><path class="cls-2" d="M76.67,62.49,90.24,48.92a2.74,2.74,0,0,1,3.88,0l13.56,13.56a2.74,2.74,0,0,1,0,3.88L94.11,79.93a2.74,2.74,0,0,1-3.88,0L76.67,66.37A2.74,2.74,0,0,1,76.67,62.49Z" transform="translate(-0.45 -3.42)"/><path class="cls-2" d="M76.68,22.38,90.25,8.82a2.74,2.74,0,0,1,3.88,0l13.56,13.56a2.74,2.74,0,0,1,0,3.88L94.12,39.82a2.74,2.74,0,0,1-3.88,0L76.68,26.26A2.74,2.74,0,0,1,76.68,22.38Z" transform="translate(-0.45 -3.42)"/><path class="cls-2" d="M56.63,42.44,70.19,28.87a2.74,2.74,0,0,1,3.88,0L87.63,42.43a2.74,2.74,0,0,1,0,3.88L74.06,59.88a2.74,2.74,0,0,1-3.88,0L56.63,46.32A2.74,2.74,0,0,1,56.63,42.44Z" transform="translate(-0.45 -3.42)"/></svg>