<svg xmlns="http://www.w3.org/2000/svg" width="31.56" height="25.843" viewBox="0 0 31.56 25.843">
  <defs>
    <style>
      .cls-1 {
        fill: #f7b7bc;
        fill-rule: evenodd;
      }
    </style>
  </defs>
  <path id="twitter_" data-name="twitter " class="cls-1" d="M1283.85,738.86l3.17-.63a27.093,27.093,0,0,1-3.17,3.15,0.142,0.142,0,0,1-.02,0,10.617,10.617,0,0,0,.02,1.894c-6.06,25.972-28.37,14.49-28.37,14.49,8.12,0.214,8.84-3.15,8.84-3.15-4.75-.718-5.67-3.78-5.67-3.78a1.982,1.982,0,0,0,2.52-.63,5.692,5.692,0,0,1-4.41-6.3,6.05,6.05,0,0,0,3.09,1.194c-0.58-.673-5.37-6.414-2.46-9.384,0,0,3.5,6.289,12.76,6.89l0.62-.154a6.3,6.3,0,0,1-.15-1.381,6.612,6.612,0,0,1,6.61-6.615c4.41,0,5.36,2.52,5.36,2.52l3.15-1.89S1285.39,738.238,1283.85,738.86Z" transform="translate(-1255.47 -734.438)"/>
</svg>
