<svg id="Layer_1" data-name="Layer 1" xmlns="http://www.w3.org/2000/svg" width="139.22" height="75.12" viewBox="0 0 139.22 75.12"><defs><style>.cls-1{fill:#fff;}</style></defs><title>logo-good-morning-america-white</title><path class="cls-1" d="M45.46,19.55a8.75,8.75,0,0,0,8.8-8.46V9.82H45.4v3.53H49.3a3.73,3.73,0,0,1-3.84,2.15,4.25,4.25,0,0,1-4.58-4.58c0-2.08,1-4.71,4.42-4.71a4.41,4.41,0,0,1,3.82,1.69l.14.21h4.4l-.22-.62a8.77,8.77,0,1,0-8,12.06Zm70.36,18.52c4.74,0,8.76-3.77,8.76-8.21V28.6h-8.82v3.47h3.89a3.73,3.73,0,0,1-3.84,2.07,4.17,4.17,0,0,1-4.55-4.44c0-2,1-4.58,4.4-4.58a4.44,4.44,0,0,1,3.8,1.64l.14.2H124l-.22-.6a8.69,8.69,0,1,0-7.92,11.7ZM63.7,19.55A8.69,8.69,0,1,0,55,10.86v.08h0A8.69,8.69,0,0,0,63.7,19.55Zm0-13.26A4.61,4.61,0,1,1,59.23,11v-.12A4.57,4.57,0,0,1,63.7,6.27ZM82,19.55a8.69,8.69,0,1,0-8.69-8.69v.08h0A8.69,8.69,0,0,0,82,19.55ZM82,6.28a4.61,4.61,0,1,1-4.44,4.78h0v-.15a4.57,4.57,0,0,1,4.46-4.65Zm20,11.89A8.09,8.09,0,0,0,106.43,11a8.45,8.45,0,0,0-3-6.44c-1-.87-2.94-1.94-7.29-1.94H91.8V19.27h4.41A13.08,13.08,0,0,0,102.09,18.17ZM96,6.29c1.91,0,3.41.2,4.6,1.2A4.62,4.62,0,0,1,102.25,11,4.34,4.34,0,0,1,100,14.94a7.82,7.82,0,0,1-3.89.71h-.17V6.27ZM32.44,29.46V38h4.34V21.65H31l-3.39,9.48L24.1,21.65H18.32V38h4.34V29.53L26,38h3.15Zm13.74-8.11a8.5,8.5,0,1,0,8.76,8.56,8.69,8.69,0,0,0-8.76-8.55Zm0,12.93a4.44,4.44,0,1,1,4.41-4.49h0a4.41,4.41,0,0,1-4.41,4.4Zm20.19-3.37a5.78,5.78,0,0,0,1.68-4,5.21,5.21,0,0,0-2-4.09,6.25,6.25,0,0,0-4.14-1.15H56.09V38.06h4.34v-5l3.53,5h4.72l-4.45-5.89a5.15,5.15,0,0,0,2.15-1.24Zm-6-5.68h1.42c2.25,0,2.35,1.57,2.35,1.88,0,.58-.23,1.93-2.35,1.93H60.38Zm26.06-3.59H90.3V38H86.44ZM74.13,28.93l5.92,9.14h4.5V21.65H80.21v9.12l-5.9-9.12H69.88V38h4.25Z" transform="translate(-2.27 -2)"/><path class="cls-1" d="M96.21,28.93l5.92,9.14h4.49V21.65h-4.34v9.12l-5.85-9.12H92V38h4.2Zm31.11,11.63-9.17,21.89h6.46l1.45-3.64h7.32l1.46,3.64h6.46L132.5,40.53h-5.21ZM132,54.67h-4.67l2.37-6.95ZM11.44,40.53,2.27,62.42H8.73l1.45-3.64H17.5L19,62.42h6.46L16.64,40.53Zm4.69,14.12H11.46L13.8,47.7Zm22-1.21L33.47,40.53H26V62.42h5.57V50.15L36,62.42h4.2l4.48-12.33V62.42h5.51V40.53H42.77Zm14.94,9H66.47v-5H58.8v-4h7.33V48.9H58.8V45.1h7.67V40.53H53.07Zm30.86-9.13a8.41,8.41,0,0,0,2.35-5.82A7.5,7.5,0,0,0,83.4,41.7c-1.45-1.06-3.21-1.18-5.92-1.18H69.65V62.41h5.51V55.27l4.89,7.14H86.7L81,54.89A6.35,6.35,0,0,0,83.93,53.29ZM75.15,45.1h2.26c3.47,0,3.64,2.28,3.64,2.74,0,.87-.35,2.79-3.64,2.79H75.15Zm14.47-4.53h5.21V62.46H89.62Zm19.53,16.68a5.78,5.78,0,0,1,0-11.54,6,6,0,0,1,5.21,3h6.32a11.56,11.56,0,1,0,0,5.4H114.4a6,6,0,0,1-5.21,3.14ZM3,74.25S59,58,141.49,72.82c-4.61.64-12.72,3.18-13.84,4.29C125.93,76.19,71.4,63.76,3,74.25Z" transform="translate(-2.27 -2)"/></svg>