<svg id="Layer_1" data-name="Layer 1" xmlns="http://www.w3.org/2000/svg" width="213.73" height="46.23" viewBox="0 0 213.73 46.23"><defs><style>.cls-1{fill:#969696;}</style></defs><title>oscars</title><path class="cls-1" d="M24.75,47.19C13.13,47.67,3,37,3.07,25.84c0-11.37,10-21.4,21.58-21.39a22,22,0,0,1,21.7,21.8C46.17,37,36.47,47.58,24.75,47.19ZM44.37,25.81C44.63,15,35.11,5.58,23.93,6.08a19.72,19.72,0,1,0,1.8,39.39C36.08,44.95,44.66,35.8,44.37,25.81Z" transform="translate(-3.07 -1)"/><path class="cls-1" d="M188,46.5a2,2,0,0,1-2.74-1c-3.78-6.1-7.66-12.14-11.45-18.24a1.81,1.81,0,0,0-1.79-1c-1,0-1.94,0-2.91,0-1.53,0-1.68.17-1.68,1.66,0,3.82,0,7.64,0,11.46,0,2.33,0,4.67,0,7.17l-1.62.09V4.88c.55-.05,1-.14,1.52-.14,2.28,0,4.57-.09,6.84,0a15.93,15.93,0,0,1,4.68.8,9.5,9.5,0,0,1,6.37,8.15,12.85,12.85,0,0,1-.29,5.23c-1.16,4.11-4.12,6.24-8.1,7.21l-1,.23s-.08.07-.28.24c1,2.36,2.67,4.37,4,6.58s2.73,4.33,4.1,6.5Zm-20.5-21.87a84,84,0,0,0,9-.19,5,5,0,0,0,1-.23c2.39-.82,4.45-2,5.38-4.59a10.84,10.84,0,0,0,.35-6.87,9.69,9.69,0,0,0-2-3.87,8.45,8.45,0,0,0-5.85-2.47c-2.27-.11-4.56-.05-6.83,0a5.8,5.8,0,0,0-1,.21Z" transform="translate(-3.07 -1)"/><path class="cls-1" d="M113.52,42.76a2.51,2.51,0,0,1-1.7,2.58,24.36,24.36,0,0,1-7.43,1.79c-3.08.13-6.16.23-9.13-.85C87,43.31,81.93,37.5,80.69,28.9,79.55,21,82.21,14.34,88.46,9.19a21.48,21.48,0,0,1,8.18-4.08,19.8,19.8,0,0,1,11.11.22c1.62.49,3.18,1.2,4.77,1.8a3.29,3.29,0,0,1,2.29,2.93c-1.37-.66-2.65-1.37-4-1.91a22.37,22.37,0,0,0-9.58-2.1,19.72,19.72,0,0,0-7.75,37.53A19.45,19.45,0,0,0,106.32,45c2.1-.48,4.13-1.23,6.2-1.87C112.82,43,113.12,42.9,113.52,42.76Z" transform="translate(-3.07 -1)"/><path class="cls-1" d="M139.79,4.56a9.43,9.43,0,0,0-.7,1.08q-4.73,10.88-9.45,21.77-3.89,8.93-7.84,17.83c-.56,1.27-.73,1.81-2.06,1.36a.77.77,0,0,1-.1-.13.27.27,0,0,1,0-.16,3.54,3.54,0,0,1,.18-.65q9.83-22.17,19.67-44.33c0-.08.17-.13.46-.32L160,46.34c-1.53.46-1.67.42-2.23-.84-1.13-2.55-2.21-5.12-3.33-7.68-2.31-5.27-4.63-10.53-6.93-15.8-2-4.64-4-9.29-6.06-13.93C141,7,140.42,5.88,139.79,4.56Z" transform="translate(-3.07 -1)"/><path class="cls-1" d="M71.86,9.46a50.28,50.28,0,0,0-4.92-2.63,9.56,9.56,0,0,0-9.28.85c-3.1,2-4.68,7.92-1.06,11.38a21.28,21.28,0,0,0,5,3.46c2.48,1.28,5,2.49,7.39,3.92a18,18,0,0,1,3.53,2.94,10.16,10.16,0,0,1-.16,13.68,12.74,12.74,0,0,1-8.92,4.1,14.66,14.66,0,0,1-6.69-1A14.26,14.26,0,0,1,51,41.33c-.73-1,0-1.66.26-2.52,1.08,1.25,2,2.48,3.09,3.54A12,12,0,0,0,69.68,43a9.06,9.06,0,0,0,2.93-10.26A8.82,8.82,0,0,0,69,28.56c-2.22-1.37-4.53-2.63-6.85-3.82A24.26,24.26,0,0,1,55,19.83c-3.49-3.78-2.4-9.69.73-12.61C59.74,3.5,66,3.84,70,6.5A3.69,3.69,0,0,1,71.86,9.46Z" transform="translate(-3.07 -1)"/><path class="cls-1" d="M192.14,40.63l.83-1.78c.45.57.79,1,1.11,1.41A12.1,12.1,0,0,0,208,44.85a9.89,9.89,0,0,0,7-8.68,7.37,7.37,0,0,0-2.16-5.76,19.59,19.59,0,0,0-5.24-3.79c-2-1-4.07-2.07-6.11-3.08a15.37,15.37,0,0,1-5.24-4.29,9,9,0,0,1,.16-10.8c3.25-4.08,8.47-5,13.29-3,.73.31,1.42.73,2.12,1.1a3.19,3.19,0,0,1,1.69,3c-.72-.49-1.25-.87-1.8-1.23a11.93,11.93,0,0,0-7.36-2.3c-3.82.23-6.44,1.63-7.77,5.53a6.84,6.84,0,0,0,1.34,7,17.46,17.46,0,0,0,5.53,3.95c2.23,1.14,4.48,2.26,6.66,3.49a14.49,14.49,0,0,1,5.28,4.76A10.4,10.4,0,0,1,213.15,44c-5.18,4.57-15.16,4.66-20-2C192.87,41.56,192.51,41.12,192.14,40.63Z" transform="translate(-3.07 -1)"/><path class="cls-1" d="M146.17,46.67H133.36a9,9,0,0,1,1-2.73,1.14,1.14,0,0,1,.65-.48c.9-.29,1.81-.53,2.72-.79,1.06-.3,1.36-.62,1.28-1.68-.16-2-.34-4.07-.63-6.09a31.76,31.76,0,0,1-.11-3.37c0-1.06-.77-2.07-1.05-3.14-.35-1.35-.21-1.69,1-2.37a1.47,1.47,0,0,0,.85-1.67,4.15,4.15,0,0,1,0-.85c0-.51.28-1,.82-.86.24,0,.45.54.56.86a1.93,1.93,0,0,1,0,.85,1.26,1.26,0,0,0,.79,1.52,1.84,1.84,0,0,1,1,2.53c-.24.8-.58,1.57-.84,2.36a2.16,2.16,0,0,0-.23,1.11,8.41,8.41,0,0,1-.17,3.38c-.21,2-.42,3.93-.52,5.9a1.57,1.57,0,0,0,.66,1.23,10.17,10.17,0,0,0,2.83,1,1.55,1.55,0,0,1,1.38,1Z" transform="translate(-3.07 -1)"/></svg>