<svg id="Layer_1" data-name="Layer 1" xmlns="http://www.w3.org/2000/svg" width="199.36" height="56.56" viewBox="0 0 199.36 56.56"><defs><style>.cls-1{fill:#969696;}</style></defs><title>logo-bethenney-getting-married</title><path class="cls-1" d="M73.63,21c0,3.95,0,7.34,0,10.74a3.09,3.09,0,0,0,.92,2.8l2,.3v1.19c-3,0-5.87,0-8.76,0a5.45,5.45,0,0,1-1-.19c.3-1.63,1.81-.82,2.67-1.6a3.65,3.65,0,0,0,.74-2.52c0-7.6,0-15.2,0-22.8a14.47,14.47,0,0,0-.48-2.73c-.88-1.09-2.27-.61-3-1.85l6.71-1.23c.47,1.67.14,3.43.2,5.15s0,3.56,0,5.34V19.1a30.93,30.93,0,0,1,3.13-2.39,7.86,7.86,0,0,1,7.62-.3,4.6,4.6,0,0,1,2.87,4.38c0,2.67,0,5.34.08,8A46.52,46.52,0,0,0,87.78,34c.54,1.31,2.67,0,2.87,1.75a44.73,44.73,0,0,1-10.31,0c.33-.33.53-.67.81-.77a20,20,0,0,1,2-.53c.82-.56.75-1.32.75-2,0-3.64,0-7.28,0-10.91,0-1.73-.43-3.2-2.15-4a4.89,4.89,0,0,0-5.25.5A25.9,25.9,0,0,0,73.63,21Z" transform="translate(-4.14 -3.08)"/><path class="cls-1" d="M10.87,33,7.79,37.18a22.67,22.67,0,0,1-.29-2.28c0-7.6,0-15.19,0-22.79,0-2-.24-4-.37-6l-3-1.39.06-.41,6.66-1.21c.13,2.52,0,5,.06,7.46s0,5,0,7.69c.64-.37,1.06-.57,1.44-.83A9.45,9.45,0,0,1,27.2,23c1.14,4.89-.19,9.71-4.59,12.47-2.22,1.39-4.61,1.23-7,1.1-1.76-.1-2.91-1.27-4-2.46A8.71,8.71,0,0,1,10.87,33ZM11,20c0,3.4,0,6.79,0,10.18A5.54,5.54,0,0,0,16,35.59a5.51,5.51,0,0,0,5.89-2.89,14.32,14.32,0,0,0,.87-11.64,5.18,5.18,0,0,0-4.63-4,1.51,1.51,0,0,1-.58-.19A8.82,8.82,0,0,0,11,20Z" transform="translate(-4.14 -3.08)"/><path class="cls-1" d="M154.59,35.26l3-.82c.84-.67.64-1.54.65-2.32,0-3.56-.07-7.12,0-10.67.06-2-.59-3.45-2.66-4.25-3.44-.48-5.81,1.3-7.62,4.2,0,3.53,0,7.09,0,10.64a2.53,2.53,0,0,0,.89,2.34c.7.66,2.28-.22,2.44,1.55H141.07c.34-.49.5-1,.8-1.09a5.83,5.83,0,0,1,1.49-.27,2.49,2.49,0,0,0,1.16-2.39c0-3.88,0-7.76,0-11.64a10.55,10.55,0,0,0-.47-2.18l-3.36-1.12a29.47,29.47,0,0,1,6.66-1.63l.81,3.7c1.57-1.21,2.89-2.81,5-3.3a8.26,8.26,0,0,1,6.52.68,3.78,3.78,0,0,1,1.88,2.68,30.24,30.24,0,0,1,.43,4.3c.06,3.39,0,6.78.13,10.14.36,1.55,2.77.16,2.88,2.2-3.2,0-6.33,0-9.46,0C155.32,36,155.14,35.71,154.59,35.26Z" transform="translate(-4.14 -3.08)"/><path class="cls-1" d="M114.84,36.05c.4-1.87,2-1,2.93-2.14a9.09,9.09,0,0,0,.45-2.31c-.08-4.33.49-8.7-.48-13.14l-3.18-1.21c2.22-1.17,4.3-1.3,6.42-1.66l.87,3.52c1.62-1.24,3-2.76,5.06-3.08a12.85,12.85,0,0,1,4.53-.18,4.74,4.74,0,0,1,3.92,4.84c0,3,0,6,.07,9,0,1.51.27,3,.37,4,.81,1.57,2.63.48,2.94,2.05-1.61.48-7.22.56-10.25.13.31-.34.49-.69.76-.79.67-.25,1.38-.38,2.33-.63a7.77,7.77,0,0,0,.37-1.69c0-4.36,0-8.73,0-13-2-2.94-4.26-3.44-7.07-1.67a7.74,7.74,0,0,0-3.13,3.26c-.35,9.75-.26,11.36.71,13.13l2.94.71c-.72.46-1.06.85-1.4.85C121,36.08,118.06,36.05,114.84,36.05Z" transform="translate(-4.14 -3.08)"/><path class="cls-1" d="M198.19,32.71c-1.54-3-4.21-3.93-8.34-3.27l-2.91,3.36-1.19-.35c.5-2.2,2-3.75,2.85-5.78,4.2-1.4,8.23-1.18,11.86,1.51,4.6,3.39,3.57,10.31-.4,13.17-1.89,1.36-3.87,2.6-5.81,3.89-.47.31-.94.62-1.4.94-2.69,1.89-3.06,2.93-2.22,6.19l-.8.32c-1.32-1.12-1.32-1.12-1.88-3.34.3-3.08,2.57-4.63,4.57-6.36,1.16-1,2.45-1.85,3.54-2.91C198,38.17,199.19,36,198.19,32.71Z" transform="translate(-4.14 -3.08)"/><path class="cls-1" d="M183.67,18.14l-2.59-.78v-.82c.14-.12.2-.22.26-.22h6.34l.17,1.12c-2.09.22-3,1.64-3.67,3.38-3,7.25-6,14.47-9.11,21.69-.5,1.18-1.15,2.3-1.71,3.46a3.85,3.85,0,0,1-2.94,2.24,1.89,1.89,0,0,1-1.56-1.75c.71-2.13,2.85-2.59,4.8-3.83l2.57-6c-3.15-8-7.6-16.93-9.38-18.85l-1.8-.39,0-1.06h8.78l.43.93-2.43.74a5.85,5.85,0,0,0,.25,1.43c1.9,4.08,3.84,8.14,5.9,12.52.36-.67.63-1.09.82-1.54q2.18-5.09,4.32-10.2A19.54,19.54,0,0,0,183.67,18.14Z" transform="translate(-4.14 -3.08)"/><path class="cls-1" d="M111.59,23H98.22a15.5,15.5,0,0,0,.54,8.79c2,4.41,6.69,4.71,9.85,2.14a18,18,0,0,0,2-2.23l.95.08A6.83,6.83,0,0,1,106,36.46a9.76,9.76,0,0,1-7.88-1.31,10.26,10.26,0,0,1-4.48-10,10.36,10.36,0,0,1,4.45-7.93c3.94-2.68,10.83-2.43,13.16,3.94A11.17,11.17,0,0,1,111.59,23ZM97.88,22c1.84,0,3.37,0,4.9,0a28.76,28.76,0,0,0,4.76-.16L107.08,19a4.55,4.55,0,0,0-5.45-2.13C99.29,17.52,98.36,19.47,97.88,22Z" transform="translate(-4.14 -3.08)"/><path class="cls-1" d="M35.32,23a23,23,0,0,0,.78,8.18,5.73,5.73,0,0,0,5,4.31,6.49,6.49,0,0,0,6.18-2.55c.38-.48.47-1.25,1.54-1.18a3.57,3.57,0,0,1-.16,1,6.81,6.81,0,0,1-4.87,3.65c-5.48,1.17-10.38-1-12-6.64-1.45-5.05-.27-9.77,4.06-12.66C41.4,13.37,48,16.21,49.08,23Zm0-1c3.33-.06,6.42.08,9.49-.1.16-3.06-.91-4.75-3.27-5.22-2-.39-4.7.59-5.42,3C36,20.36,35.7,21,35.35,22Z" transform="translate(-4.14 -3.08)"/><path class="cls-1" d="M58.38,9.85c.42,2.35.11,4.2.3,6.18,1.83.52,3.78,0,5.71.35v1.18H58.88c-.56,3.73-.32,13.67.39,16.2L61,35.21a11.82,11.82,0,0,0,2.21-.65,9.45,9.45,0,0,1,2.13-1.16,3.79,3.79,0,0,1-.35,1c-1.49,2.09-3.61,2.6-6,2.21a3.88,3.88,0,0,1-3.16-2.69,11.18,11.18,0,0,1-.54-3.31c-.07-3.56,0-7.12,0-10.68,0-.71,0-1.42,0-2.23l-2.67-.15-.33-1c1.5-.47,3.1-.75,3.93-2.12S57.45,11.77,58.38,9.85Z" transform="translate(-4.14 -3.08)"/><path class="cls-1" d="M101.69,56.22l4.83-10.89A15.51,15.51,0,0,1,107.68,50c.28,1.5.63,3,.92,4.47s.57,3.12.88,4.87L108,59.22l-1.86-9-4.35,9.39c-1.84-3.05-2.59-6.28-4.56-9.08l-1.75,8.7H94c.69-4.71,1.71-9.25,2.69-14.33Z" transform="translate(-4.14 -3.08)"/><path class="cls-1" d="M135.34,53.71v5.55l-1.06.11c-.53-.48-.65-9.7-.21-13.42,4-.48,4.78-.27,6.56,1.73.18,1.57.44,3.18-.93,4.65l-2,1.1,4.08,5.74-1.67.23-4.2-5.87Z" transform="translate(-4.14 -3.08)"/><path class="cls-1" d="M124.1,45.77c2.15.08,4.11-.4,5.77.8,1.28,1.21,1.18,2.66,1,4.13-1.24,1.82-1.24,1.82-3.15,2.59l4.22,6-1.75.08-4.46-6.17c-.31,2.23-.05,4-.22,6l-1.2.25c-.46-2.32-.15-4.57-.21-6.79S124.1,48.26,124.1,45.77Z" transform="translate(-4.14 -3.08)"/><path class="cls-1" d="M60.64,49.42v9.76l-1.15.17c-.46-.49-.56-8.66-.23-14.13,3.55,3.52,6.84,7,10.51,10.63V45.92h1.75V59.46c-1.63-.75-2.49-2.13-3.6-3.2s-2.29-2.49-3.46-3.72-2.22-2.27-3.34-3.4Z" transform="translate(-4.14 -3.08)"/><path class="cls-1" d="M116.13,45.39c1.12,1.52,5.44,11.3,6.09,13.77l-1.21.27-1.91-3.86h-5.8l-1.65,3.63-1.73.2Z" transform="translate(-4.14 -3.08)"/><path class="cls-1" d="M85.33,54H81.5l-.07-1.37h5.43c.65,2.85-1,5.57-4.13,6.54s-7.24-.11-9-4.86c-.27-4.67,1-7.15,4.35-8.45,3-1.17,5.85-.36,8.24,2.46l-.73.89c-.75-.56-1.44-1.08-2.15-1.59-2.48-1.78-6.07-.44-7.53,1.93A5.48,5.48,0,0,0,77.49,57a5.15,5.15,0,0,0,7.65-1.69A4.88,4.88,0,0,0,85.33,54Z" transform="translate(-4.14 -3.08)"/><path class="cls-1" d="M157.89,45.79c1.5,0,2.87,0,4.24,0,3.11,0,5.81,3.35,5.89,6,.13,4.49-2.33,7.13-6.92,7.57-1,.09-1.93,0-2.84,0C157.62,57.72,157.46,51.54,157.89,45.79Zm1.72,12.12c2.9,0,5.27-.55,6.43-3.22a5.28,5.28,0,0,0-.63-5.67c-1.54-1.93-3.58-2.13-5.79-1.61Z" transform="translate(-4.14 -3.08)"/><path class="cls-1" d="M20.24,54c0-.53,0-1,0-1.41,1.76-.15,3.43,0,5.19,0a5.06,5.06,0,0,1-1.66,5.12A6.53,6.53,0,0,1,18,59.38,7.44,7.44,0,0,1,12,52.67a7.78,7.78,0,0,1,4.64-6.79,6.85,6.85,0,0,1,6.65.82c.59.4,1.13.89,1.83,1.45l-.87,1c-.27-.08-.45-.08-.56-.17a11.48,11.48,0,0,0-1.84-1.56A5.35,5.35,0,0,0,16,48c-2,1.45-2.47,3.54-2.06,5.81a5.34,5.34,0,0,0,3.77,4.08c2.77,1,5.28-.67,6.39-3.86-.91,0-1.28,0-1.89,0S21.05,54,20.24,54Z" transform="translate(-4.14 -3.08)"/><path class="cls-1" d="M149.81,47.11c0,1.13,0,1.92,0,2.71,0,.38.05.76.1,1.33h5.18l.11,1.24c-1.73.45-3.52,0-5.26.3v5.23h5.2v1.36H148.2c-.41-2.17-.11-4.41-.17-6.63s0-4.35,0-6.66c2.34-.47,4.65-.11,7.06-.25l.18,1.39Z" transform="translate(-4.14 -3.08)"/><path class="cls-1" d="M27.95,45.84h6.87l0,1.33H29.54v3.9h5.12v1.46H29.55v5.33h5.17l0,1.38H28.11C28,56.83,28,55,28,52.61,27.91,50.44,27.95,48.26,27.95,45.84Z" transform="translate(-4.14 -3.08)"/><path class="cls-1" d="M48.36,47.18l-3.48,0V45.8l8.37-.06v1.34l-3.41.06s0,4.14,0,6.13,0,4.08,0,6.14H48.38c0-2,0-4.08,0-6.06S48.36,49.39,48.36,47.18Z" transform="translate(-4.14 -3.08)"/><path class="cls-1" d="M41.22,59.28H39.7c0-4,0-8,0-12.09l-3.62,0V45.84s5.73,0,8.29,0c0,0,0,1.33,0,1.37l-3.22,0C41.18,51.18,41.22,55.12,41.22,59.28Z" transform="translate(-4.14 -3.08)"/><path class="cls-1" d="M145.35,59.39l-1.54-.18a56.12,56.12,0,0,1-.13-6.52c0-2.17,0-4.35,0-6.69l1.68-.23Z" transform="translate(-4.14 -3.08)"/></svg>