<svg id="Layer_1" data-name="Layer 1" xmlns="http://www.w3.org/2000/svg" width="152.91" height="74.75" viewBox="0 0 152.91 74.75"><defs><style>.cls-1{fill:#969696;}</style></defs><title>logo-the-view</title><polyline class="cls-1" points="0 9.74 29.67 74.75 33.07 74.75 62.86 9.74 49.84 9.74 31.43 50.29 13.59 9.74"/><rect class="cls-1" x="62.86" y="24.69" width="7.36" height="37.83"/><polygon class="cls-1" points="103.07 24.69 79.51 24.69 79.51 62.52 103.07 62.52 103.07 55.73 86.76 55.73 86.53 47.16 100.35 46.89 100.81 39.63 86.3 39.63 86.08 31.94 103.07 31.94 103.07 24.69"/><polyline class="cls-1" points="106.92 24.69 117.34 62.52 120.06 62.52 129.8 38.96 138.86 62.52 142.03 62.52 152.91 24.69 145.43 24.69 139.99 46.89 131.16 24.69 128.21 24.69 120 46.73 113.71 24.69"/><polygon class="cls-1" points="63.57 0 73.54 0 73.54 3.18 70.14 3.18 70.14 14.84 66.45 14.84 66.45 3.15 63.57 3.18 63.57 0"/><polygon class="cls-1" points="77.05 0 77.05 15.07 80.33 15.07 80.33 8.89 86.45 8.89 86.45 14.84 89.9 14.84 89.9 0 86.68 0 86.73 6.34 80.5 6.29 80.45 0 77.05 0"/><polygon class="cls-1" points="103.56 0 93.92 0 93.92 15.07 103.56 15.07 103.56 12.24 97.72 12.18 97.72 8.95 102.98 8.89 102.98 6.06 97.49 6.11 97.43 2.72 103.56 2.72 103.56 0"/></svg>