<svg id="Layer_1" data-name="Layer 1" xmlns="http://www.w3.org/2000/svg" width="265.36" height="46.47" viewBox="0 0 265.36 46.47"><defs><style>.cls-1{fill:#fff;}.cls-2{fill:#969696;}</style></defs><title>logo-the-hangover</title><path class="cls-1" d="M68.72,0V38.35h4.62V11.1l27.74,28.75V1.75H96.46v27Zm94.45,39.18a19.07,19.07,0,0,0,19.41-18.73q0-.22,0-.45a19.42,19.42,0,0,0-38.83.09,19.07,19.07,0,0,0,19.06,19.09Zm102.19,5.59H0v1.69H265.36ZM138.69,8c-.32-.36-.57-.68-.86-1a19.24,19.24,0,1,0-14.91,32.13,16.93,16.93,0,0,0,16.37-10.56A19.91,19.91,0,0,0,140.62,20H126v4.16h9.6c-.1.65-.16,1.19-.29,1.72-1.49,6.18-8.53,10.34-14.9,8.8a15.15,15.15,0,0,1-11.2-17.1A14,14,0,0,1,119.44,5.82c5.74-1.79,10.79-.21,15,4,.38.38.71.81,1.09,1.25ZM7.4,16.47V1.74H2.83V38.37H7.45V20.8H25.09V38.37h4.56V1.74H25V16.47ZM239.65,1.73V38.36h4.62V22.89a4.39,4.39,0,0,0,.68,0,1.79,1.79,0,0,1,1.93,1c3.25,4.7,6.55,9.35,9.84,14,.15.2.38.5.57.5h5.4L251,22.43c.55-.12,1-.18,1.4-.3,4.09-1.07,6.76-4.23,7.4-8.71a9.91,9.91,0,0,0-6.47-10.78A16.57,16.57,0,0,0,249,1.81c-3-.16-5.94-.11-8.9-.15ZM67.43,38.41,49.71.15,32,38.41h4.38a.79.79,0,0,0,.86-.57c1.21-2.68,2.46-5.34,3.7-8a.92.92,0,0,1,.92-.63H57.58a.92.92,0,0,1,1,.65l3.7,8c.1.23.37.54.56.54C64.29,38.43,65.79,38.41,67.43,38.41Zm152.44-4.19V20.35h14.79V16.13H219.88V5.89h15.18V1.74h-19.8V38.35h19.81V34.21ZM213,1.69h-4.4a.84.84,0,0,0-.92.65Q202.46,15.14,197.24,28l-.37.88c-.14-.32-.24-.53-.32-.73L194.07,22q-4-9.85-8-19.69c-.09-.22-.3-.57-.45-.58h-4.84l16.14,38.65Z"/><path class="cls-2" d="M68.72,0,96.46,28.76v-27h4.62v38.1L73.35,11.1V38.35H68.72Z"/><path class="cls-2" d="M163.17,39.18a19.07,19.07,0,0,1-19.41-18.73q0-.18,0-.35A19.42,19.42,0,0,1,182.59,20h0a19.07,19.07,0,0,1-19,19.18ZM178,20a14.79,14.79,0,1,0-14.79,14.79A14.79,14.79,0,0,0,178,20Z"/><path class="cls-2" d="M265.36,44.78v1.69H0V44.81Z"/><path class="cls-2" d="M138.72,8l-3.23,3c-.38-.43-.71-.87-1.09-1.25-4.24-4.22-9.25-5.82-15-4s-9.13,5.83-10.17,11.72a15.15,15.15,0,0,0,11.2,17.1c6.35,1.54,13.41-2.62,14.9-8.8.13-.53.18-1.07.29-1.72H126V20h14.61a19.91,19.91,0,0,1-1.34,8.64A16.93,16.93,0,0,1,123,39.17,19.14,19.14,0,1,1,137.86,7C138.15,7.34,138.41,7.64,138.72,8Z"/><path class="cls-2" d="M7.39,16.47H25V1.74h4.62V38.35H25.09V20.78H7.43V38.35H2.81V1.74H7.38Z"/><path class="cls-2" d="M239.65,1.73h.42c3,0,5.94,0,8.9.15a16.57,16.57,0,0,1,4.35.83,9.91,9.91,0,0,1,6.47,10.78c-.64,4.49-3.31,7.64-7.4,8.71-.42.11-.84.18-1.4.3l11.69,15.94h-5.4c-.19,0-.43-.3-.57-.5-3.29-4.62-6.59-9.32-9.84-14a1.79,1.79,0,0,0-1.93-1,4.39,4.39,0,0,1-.68,0V38.36h-4.62Zm4.62,4.07V19.06a23,23,0,0,0,6.47-.54q4.71-1.24,4.8-6c.06-3.14-1.41-5.12-4.55-6.08a21.27,21.27,0,0,0-6.7-.67Z"/><path class="cls-2" d="M67.43,38.41H62.81c-.19,0-.46-.31-.56-.54l-3.7-8a.92.92,0,0,0-.92-.62H41.9a.92.92,0,0,0-.92.63c-1.2,2.68-2.45,5.34-3.7,8a.79.79,0,0,1-.86.57H32L49.71.15ZM49.71,10.17,43.15,25H56.29Z"/><path class="cls-2" d="M219.87,34.21h15.2v4.14H215.25V1.74h19.8V5.89H219.88V16.13h14.74v4.21H219.82Z"/><path class="cls-2" d="M213,1.69,196.87,40.34,180.73,1.69h4.84c.16,0,.36.35.45.58q4,9.85,8,19.69l2.48,6.08c.08.2.18.42.32.73l.37-.8L207.62,2.37a.84.84,0,0,1,.92-.65Z"/><path class="cls-1" d="M178,20A14.79,14.79,0,1,1,163.16,5.24,14.79,14.79,0,0,1,178,20Zm-12.74.73v4h2.66v-10h-2.69v3.78h-3.95V14.85h-2.66v10h2.7V20.76Zm10.48-5.91h-5.94v9.95h5.9V22.62H172.5V20.88h3V18.65h-3V17h3.21ZM150.34,17h2.26v7.77h2.72V17h2.17V14.84h-7.14Z"/><path class="cls-1" d="M244.29,5.79a21.27,21.27,0,0,1,6.68.67c3.13.92,4.62,2.94,4.55,6.08a5.83,5.83,0,0,1-4.8,6,23,23,0,0,1-6.47.54Z"/><path class="cls-1" d="M49.71,10.17,56.29,25H43.15Z"/><path class="cls-2" d="M165.21,20.76h-3.94v4.06h-2.7v-10h2.66v3.78h3.95V14.85h2.69V24.8h-2.66Z"/><path class="cls-2" d="M175.69,14.85V17h-3.21v1.66h3v2.23h-3v1.73h3.16v2.19h-5.9v-10Z"/><path class="cls-2" d="M150.33,17v-2.2h7.16V17h-2.16v7.81h-2.74V17Z"/></svg>