<svg id="Layer_1" data-name="Layer 1" xmlns="http://www.w3.org/2000/svg" width="149.35" height="51.71" viewBox="0 0 149.35 51.71"><defs><style>.cls-1{fill:#969696;}.cls-2{fill:#f8faf4;}.cls-3{fill:#f5f9f2;}</style></defs><title>logo-ted2</title><path class="cls-1" d="M131.79,41.59H151.9v11.3H112.53a71.38,71.38,0,0,0-.05-7.15c-.25-2.42.65-3.84,2.59-5.25,5.91-4.31,11.69-8.8,17.41-13.35a20.21,20.21,0,0,0,4.06-4.44,5.24,5.24,0,0,0,.06-6.26c-1.44-2-3.62-2.25-5.88-1.93a10.35,10.35,0,0,0-5.42,3c-1.1,1-2.19,2-3.34,3.09L112.81,13c4.09-5.59,9.08-9.6,16.11-10.5a25.46,25.46,0,0,1,12,1c12.68,4.53,12.8,18.69,7,25.11a66.48,66.48,0,0,1-8.05,7.12c-2.2,1.77-4.61,3.27-6.92,4.9C132.64,40.88,132.36,41.13,131.79,41.59Z" transform="translate(-2.55 -2.24)"/><path class="cls-1" d="M88.69,52.87V48.73c-.41.37-.65.55-.85.77-5.6,6.29-14.59,4.87-19.25.42A16.92,16.92,0,0,1,63.43,40c-1-6.39-.21-12.45,4.24-17.54,5.17-5.92,14.77-6.45,20.12-.86.21.22.46.39.88.74V6.55h12.14V52.87ZM75,36.08c0,.29.06.94.18,1.58A6.9,6.9,0,0,0,84.54,43c3-1.29,4.15-3.79,4.37-6.87.33-4.79-3.13-8.51-7.59-8.17C77.67,28.24,75,31.51,75,36.08Z" transform="translate(-2.55 -2.24)"/><path class="cls-1" d="M62,39.11H38.87a6.83,6.83,0,0,0,3.53,4.7,9.25,9.25,0,0,0,10.17-1.59c1.07-1,1.68-.86,2.65,0,1.69,1.55,3.51,3,5.34,4.47a15.17,15.17,0,0,1-5.3,4.67c-7,3.56-14,3.47-20.55-.68-6.22-3.92-8.23-10.11-7.45-17.15C28.85,19.26,43,14.39,53.39,19.84c5,2.61,7.28,7.2,8.14,12.54C61.88,34.54,61.84,36.77,62,39.11ZM50.37,32.78c-.19-3.67-2.72-6.14-6-6a6,6,0,0,0-5.47,6Z" transform="translate(-2.55 -2.24)"/><path class="cls-1" d="M6.55,9.82H18.7c0,1.7,0,3.38,0,5.06,0,1.15-.29,2.68.31,3.35s2.12.21,3.24.23c1.41,0,2.83,0,4.35,0v9.83H18.7c0,.89,0,1.6,0,2.32,0,3,0,6.06,0,9.09,0,2.69,1.07,3.71,3.74,3.5a33.78,33.78,0,0,0,4.08-.83c0,.29.08.63.08,1,0,2.42,0,4.85,0,7.27a1.41,1.41,0,0,1-1,1.58A18.72,18.72,0,0,1,13.33,53c-3.92-1.07-6-3.88-6.52-7.76a41.14,41.14,0,0,1-.25-5.44c0-3,0-6,0-9,0-2.57,0-2.57-2.52-2.56H2.55V18.46c1,0,2,0,3,0,.74,0,1-.23,1-1C6.53,15,6.55,12.49,6.55,9.82Z" transform="translate(-2.55 -2.24)"/><path class="cls-2" d="M75,36.08c0-4.56,2.66-7.84,6.31-8.12,4.46-.34,7.92,3.39,7.59,8.17-.21,3.08-1.41,5.58-4.37,6.87a6.9,6.9,0,0,1-9.36-5.35C75.07,37,75,36.37,75,36.08Z" transform="translate(-2.55 -2.24)"/><path class="cls-3" d="M50.37,32.78H38.85a6,6,0,0,1,5.47-6C47.65,26.64,50.18,29.11,50.37,32.78Z" transform="translate(-2.55 -2.24)"/></svg>