<svg id="Layer_1" data-name="Layer 1" xmlns="http://www.w3.org/2000/svg" width="219.33" height="45.96" viewBox="0 0 219.33 45.96"><defs><style>.cls-1{fill:#969696;}</style></defs><title>logo-bachelor</title><path class="cls-1" d="M23.3,32.27c2.87,1.38,4.1,3.48,3.86,6.42a6.11,6.11,0,0,1-4.79,5.85,13.14,13.14,0,0,1-3.31.48c-5.42.05-10.85,0-16.27,0-1.13,0-1.15,0-1.15-1.17q0-10.52,0-21c0-1.16,0-1.18,1.15-1.18,5.47,0,10.94,0,16.41,0a11.64,11.64,0,0,1,3.3.49A4.85,4.85,0,0,1,26,26.47c.29,2.23-.23,4.19-2.31,5.45A4.64,4.64,0,0,0,23.3,32.27Zm-10,8.33h0c1.49,0,3,0,4.48,0A2.43,2.43,0,0,0,20.33,38c0-1.73-.92-2.81-2.88-2.89-2.84-.1-5.69,0-8.54-.06-.7,0-.86.33-.85.95,0,1.21,0,2.43,0,3.64,0,.84.34,1,1.08,1C10.53,40.57,11.93,40.6,13.33,40.6ZM13.07,31h0c1.36,0,2.71,0,4.07,0a2.14,2.14,0,0,0,2.3-2.28A2.27,2.27,0,0,0,17,26c-2.71-.1-5.42,0-8.13-.07-.64,0-.78.3-.77.86,0,1.07,0,2.15,0,3.23,0,.85.35,1,1.09,1C10.45,31,11.76,31,13.07,31Z" transform="translate(-1.63 -1.23)"/><path class="cls-1" d="M221,45.07c-2,0-3.91,0-5.87,0-.7,0-1.07-.28-1.14-.93-.11-1-.17-1.95-.26-2.92a18.35,18.35,0,0,0-.29-2.64,2.37,2.37,0,0,0-2.25-2c-2.76-.1-5.51-.09-8.27-.12-.7,0-.66.51-.66,1q0,3,0,6a3.08,3.08,0,0,1,0,1c-.08.24-.37.56-.58.57-1.73,0-3.46,0-5.19,0-.5,0-.65-.26-.63-.71,0-.23,0-.47,0-.7q0-10.25,0-20.49c0-.19,0-.38,0-.56-.05-.63.16-1,.86-.93h.14c5.8,0,11.6,0,17.4.07a8.33,8.33,0,0,1,2.21.36,5.63,5.63,0,0,1,4.27,5c.24,2.65-.34,4.95-3,6.22a4,4,0,0,0-.52.37c2.42,1,2.72,3.08,3,5.21.08.79,0,1.6.09,2.38C220.36,42.51,220.67,43.73,221,45.07ZM207,32V32c1.4,0,2.81.1,4.2,0a2.76,2.76,0,0,0,2.69-3,2.66,2.66,0,0,0-2.75-2.78c-2.71-.11-5.42,0-8.13-.06-.51,0-.78.19-.77.74,0,1.45,0,2.9,0,4.35,0,.6.26.84.84.83C204.36,32,205.67,32,207,32Z" transform="translate(-1.63 -1.23)"/><path class="cls-1" d="M116.57,33.4q0-5.19,0-10.39c0-1.33,0-1.35,1.27-1.35h19.65c1.21,0,1.21,0,1.22,1.25,0,.84,0,1.68,0,2.53,0,.47-.22.68-.68.68H124.42c-1.4,0-1.4,0-1.41,1.37,0,.8,0,1.59,0,2.39,0,1.07,0,1.09,1.11,1.1,3.7,0,7.39,0,11.09,0,.65,0,1.31,0,2,0s.74.24.73.76c0,.89,0,1.78,0,2.67,0,.61-.23.83-.83.81-1.08,0-2.15,0-3.23,0H124.3c-1.28,0-1.29,0-1.3,1.34,0,1,0,2,0,2.95s0,1.09,1.11,1.09c3.37,0,6.74,0,10.1,0,1.26,0,2.53,0,3.79,0,.59,0,.86.19.85.8q0,1.47,0,2.95c0,.55-.24.76-.77.73-.33,0-.65,0-1,0H118.31c-.33,0-.66,0-1,0-.51,0-.8-.16-.76-.72,0-.33,0-.65,0-1Q116.57,38.38,116.57,33.4Z" transform="translate(-1.63 -1.23)"/><path class="cls-1" d="M83.74,30.48c-2.23,0-4.28,0-6.32,0a1,1,0,0,1-.74-.61c-1-3.33-4.34-4.66-7.47-4.36-3.62.35-5.7,2.29-6.4,5.81A10.9,10.9,0,0,0,62.93,36a6.37,6.37,0,0,0,6,5.15,11.71,11.71,0,0,0,3.33-.23,5.59,5.59,0,0,0,4.31-4c.12-.39.1-.88.71-.86h6.44a9.27,9.27,0,0,1-2.1,5.35A10.56,10.56,0,0,1,76,44.92,23.35,23.35,0,0,1,64.09,45a10.2,10.2,0,0,1-8.19-9.79,23.14,23.14,0,0,1,.22-5.16,9.69,9.69,0,0,1,7.3-8.21,22.43,22.43,0,0,1,13.4.14C80.81,23.29,83.1,26.05,83.74,30.48Z" transform="translate(-1.63 -1.23)"/><path class="cls-1" d="M86.48,33.3c0-3.46,0-6.92,0-10.39,0-1.23,0-1.24,1.23-1.25s2.53,0,3.79,0,1.4,0,1.4,1.36c0,2.11,0,4.21,0,6.32,0,1.07,0,1.09,1.1,1.1q5.61,0,11.23,0c1,0,1.07,0,1.08-1.13,0-2.2,0-4.4,0-6.6,0-.78.25-1.08,1-1.06,1.5,0,3,0,4.49,0,.59,0,.87.23.83.83,0,.14,0,.28,0,.42q0,10.46,0,20.91c0,1.22,0,1.23-1.24,1.24s-2.62,0-3.93,0-1.18,0-1.19-1.15c0-2.53,0-5.05,0-7.58,0-1.41,0-1.41-1.35-1.42H94.16c-1.23,0-1.24,0-1.25,1.23,0,2.57,0,5.15,0,7.72,0,1.17,0,1.18-1.13,1.2q-2.1,0-4.21,0c-1.06,0-1.08,0-1.09-1.09C86.47,40.42,86.48,36.86,86.48,33.3Z" transform="translate(-1.63 -1.23)"/><path class="cls-1" d="M56.1,45.07c-2.1,0-4.06,0-6,0A1,1,0,0,1,49,44.27c-.41-1.09-.87-2.17-1.28-3.26a1.05,1.05,0,0,0-1.16-.76q-4.63,0-9.26,0a1,1,0,0,0-1.13.8c-.4,1.1-.87,2.17-1.29,3.26-.16.41-.31.77-.85.77-2.05,0-4.1,0-6.28,0,.16-.48.25-.84.4-1.17,3.12-7,6.26-14,9.34-21a1.78,1.78,0,0,1,2-1.25c1.82.08,3.65,0,5.47,0a1.19,1.19,0,0,1,1.28.82q4.87,11,9.78,22A3.66,3.66,0,0,1,56.1,45.07ZM45.64,36l-3.71-9.23C40.6,30,39.39,32.88,38.24,36h7.4Z" transform="translate(-1.63 -1.23)"/><path class="cls-1" d="M192.82,33.46a13.91,13.91,0,1,1-13.94-13.91A13.86,13.86,0,0,1,192.82,33.46Zm-14,10a10,10,0,1,0-10.08-10.09A10.08,10.08,0,0,0,178.86,43.42Z" transform="translate(-1.63 -1.23)"/><path class="cls-1" d="M142.41,33.41q0-5.26,0-10.52c0-1.2,0-1.21,1.26-1.22s2.71,0,4.07,0c1.08,0,1.1,0,1.11,1.08,0,1.73,0,3.46,0,5.19,0,3.6,0,7.2,0,10.8,0,1.76-.24,1.71,1.77,1.71h12.06c.46,0,.66.26.66.71q0,1.61,0,3.22c0,.47-.22.68-.68.67H143.73c-1.31,0-1.32,0-1.32-1.28Q142.4,38.6,142.41,33.41Z" transform="translate(-1.63 -1.23)"/><path class="cls-1" d="M55.24,1.67,53.06,2.79l0,.37,7.78,1.39a27.84,27.84,0,0,1-2.9,0c-1.62-.19-3.24-.45-4.85-.73a2.05,2.05,0,0,0-1.91.54C48.43,6.89,45.58,9.39,42.81,12a43.78,43.78,0,0,1-8.93,6.72A18.67,18.67,0,0,1,26.44,21,12.45,12.45,0,0,1,23,20.85a3.18,3.18,0,0,1-2.6-4.09,30.68,30.68,0,0,1,1.56-3.94,3.85,3.85,0,0,1-.86-3.5,6.93,6.93,0,0,1,2.25-3.95,15.4,15.4,0,0,1,7.8-3.56A40.89,40.89,0,0,1,43.7,1.63c2.46.28,4.9.69,7.35,1.09a2.29,2.29,0,0,0,1.59-.24c.8-.43,1.67-.74,2.5-1.09Zm-32.87,11c.49-.47.82-.79,1.16-1.1a18.72,18.72,0,0,1,12.75-5,6,6,0,0,1,2.52.66c.86.42,1,1,.62,2a2.58,2.58,0,0,0-2.77-2.35A5.22,5.22,0,0,0,35.27,7a23.81,23.81,0,0,0-12.93,7.36A6.78,6.78,0,0,0,21,16.5a2.7,2.7,0,0,0,2,3.89,6.66,6.66,0,0,0,1.52.23c2.83.11,5.29-1,7.67-2.35a53,53,0,0,0,8.26-6q4.18-3.53,8.38-7c.64-.53,1.31-1,2.18-1.7-.74-.13-1.22-.23-1.71-.3-1.25-.16-2.5-.33-3.76-.46A53.12,53.12,0,0,0,31.7,2.65a17.28,17.28,0,0,0-7,2.44,6.79,6.79,0,0,0-2.9,3.32A4.2,4.2,0,0,0,22.37,12.65Z" transform="translate(-1.63 -1.23)"/><path class="cls-1" d="M60,15.39a19.21,19.21,0,0,1-5.86,3.67,3.6,3.6,0,0,1-.68.16c-1.49.19-2-.19-2.26-1.8a14.92,14.92,0,0,1-1.33.78,12.28,12.28,0,0,1-2.45,1c-1.2.26-1.83-.55-1.28-1.66a6.57,6.57,0,0,1,1.47-1.85c1-.91,2.1-1.72,3.14-2.59a7.54,7.54,0,0,0,1.35-1.39,12.49,12.49,0,0,0-6.28,2.78c-1.79,1.39-3.33,3.1-5,4.7-.53-.33-.32-.81,0-1.25a26.43,26.43,0,0,1,1.77-2.35,56.79,56.79,0,0,1,11-9.49A5.68,5.68,0,0,1,57.4,4.89,53.24,53.24,0,0,0,47.13,13c.29-.13.58-.27.88-.39,1.26-.5,2.5-1.05,3.79-1.44a1.6,1.6,0,0,1,1.33.45c.16.17,0,.9-.3,1.21A16.23,16.23,0,0,1,51,14.69c-.94.85-1.94,1.62-2.87,2.48a17.53,17.53,0,0,0-1.33,1.56,4.32,4.32,0,0,0,1.07-.06,11.22,11.22,0,0,0,4.46-3A14.69,14.69,0,0,1,59,11.22c.6-.2,1.4-.48,1.79.21s-.28,1.37-.85,1.68a9.48,9.48,0,0,1-3.19,1.29,3.73,3.73,0,0,0-2.5,1.3,15.41,15.41,0,0,0-1.64,2.08c-.42.68-.09,1.14.67,1a5.8,5.8,0,0,0,2-.67c1.35-.82,2.64-1.76,4-2.66l.54-.36Zm.37-4a9.46,9.46,0,0,0-4,2.77A5,5,0,0,0,60.35,11.38Z" transform="translate(-1.63 -1.23)"/></svg>