<svg id="Layer_1" data-name="Layer 1" xmlns="http://www.w3.org/2000/svg" width="225.16" height="39.43" viewBox="0 0 225.16 39.43"><defs><style>.cls-1{fill:#fff;}.cls-2{fill:none;}</style></defs><title>logo-the-hangover-white</title><path class="cls-1" d="M58.31,0V32.54h3.92V9.42l23.54,24.4V1.48H81.85V24.4Zm80.14,33.25a16.18,16.18,0,0,0,16.47-15.89h0V17A16.48,16.48,0,0,0,122,17a16.18,16.18,0,0,0,16.16,16.2h.31ZM225.16,38H0v1.43H225.16ZM117.68,6.79c-.27-.31-.48-.58-.73-.85A16.33,16.33,0,1,0,104.3,33.2a14.37,14.37,0,0,0,13.89-9A16.89,16.89,0,0,0,119.32,17H106.91V20.5h8.15c-.08.55-.14,1-.25,1.46-1.26,5.24-7.24,8.77-12.64,7.47a12.86,12.86,0,0,1-9.5-14.51,11.88,11.88,0,0,1,8.68-10c4.87-1.52,9.16-.18,12.73,3.39.32.32.6.69.92,1.06ZM6.28,14V1.48H2.4V32.56H6.32V17.65h15V32.56h3.87V1.48H21.21V14ZM203.35,1.47V32.55h3.92V19.42a3.72,3.72,0,0,0,.58,0,1.52,1.52,0,0,1,1.64.85c2.76,4,5.56,7.93,8.35,11.88.13.17.32.42.48.42h4.58L213,19c.47-.1.85-.15,1.19-.25a8.4,8.4,0,0,0,6.28-7.39A8.41,8.41,0,0,0,215,2.24a14.06,14.06,0,0,0-3.67-.7c-2.55-.14-5-.09-7.55-.13ZM57.22,32.59,42.18.13l-15,32.46h3.72a.67.67,0,0,0,.73-.48c1-2.27,2.09-4.53,3.14-6.79a.78.78,0,0,1,.78-.53H48.86a.78.78,0,0,1,.85.55l3.14,6.79c.08.2.31.46.48.46C54.55,32.61,55.82,32.59,57.22,32.59ZM186.57,29V17.27h12.55V13.69H186.57V5h12.88V1.48h-16.8V32.54h16.81V29Zm-5.83-27.6H177a.71.71,0,0,0-.78.55q-4.43,10.86-8.86,21.77l-.31.75c-.12-.27-.2-.45-.27-.62l-2.1-5.22L157.89,2c-.08-.19-.25-.48-.38-.49H153.4l13.7,32.8Z"/><path class="cls-1" d="M58.31,0,81.85,24.4V1.49h3.92V33.82L62.24,9.42V32.54H58.31Z"/><path class="cls-1" d="M138.45,33.25A16.18,16.18,0,0,1,122,17.36h0v-.3A16.48,16.48,0,0,1,154.93,17h0a16.18,16.18,0,0,1-16.09,16.27h-.39ZM151,17a12.55,12.55,0,1,0-12.55,12.55h0A12.55,12.55,0,0,0,151,17Z"/><path class="cls-1" d="M225.16,38v1.43H0V38Z"/><path class="cls-1" d="M117.71,6.79,115,9.33c-.32-.36-.6-.74-.92-1.06-3.6-3.58-7.85-4.94-12.73-3.39a11.93,11.93,0,0,0-8.63,9.94,12.86,12.86,0,0,0,9.5,14.51c5.39,1.31,11.38-2.22,12.64-7.47.11-.45.15-.91.25-1.46h-8.16V17h12.4a16.89,16.89,0,0,1-1.14,7.33,14.37,14.37,0,0,1-13.81,8.93A16.24,16.24,0,1,1,117,5.94Z"/><path class="cls-1" d="M6.27,14H21.21V1.48h3.92V32.54H21.29V17.63H6.3V32.54H2.38V1.48H6.26Z"/><path class="cls-1" d="M203.35,1.47h.36c2.55,0,5,0,7.55.13a14.06,14.06,0,0,1,3.69.7,8.41,8.41,0,0,1,5.49,9.15,8.39,8.39,0,0,1-6.28,7.39c-.36.09-.71.15-1.19.25l9.92,13.53h-4.58c-.16,0-.36-.25-.48-.42-2.79-3.92-5.59-7.91-8.35-11.88a1.52,1.52,0,0,0-1.64-.85,3.72,3.72,0,0,1-.58,0V32.55h-3.92Zm3.92,3.45V16.17a19.52,19.52,0,0,0,5.49-.46,4.93,4.93,0,0,0,4.07-5.09c.05-2.66-1.2-4.34-3.86-5.16a18,18,0,0,0-5.69-.57Z"/><path class="cls-1" d="M57.22,32.59H53.3c-.16,0-.39-.26-.48-.46l-3.14-6.79a.78.78,0,0,0-.78-.53H35.55a.78.78,0,0,0-.78.53c-1,2.27-2.08,4.53-3.14,6.79a.67.67,0,0,1-.73.48H27.15l15-32.5Zm-15-24L36.61,21.21H47.76Z"/><path class="cls-1" d="M186.57,29h12.9v3.51H182.65V1.48h16.8V5H186.57v8.69h12.51v3.57H186.52Z"/><path class="cls-1" d="M180.74,1.43,167,34.23l-13.7-32.8h4.11c.14,0,.31.3.38.49l6.79,16.71,2.1,5.16c.07.17.15.36.27.62l.31-.68L176.17,2a.71.71,0,0,1,.78-.55Z"/><path class="cls-2" d="M151,17A12.55,12.55,0,1,1,138.45,4.45,12.55,12.55,0,0,1,151,17Zm-10.81.62V21h2.26V12.5H140.2v3.21h-3.35V12.6h-2.26v8.49h2.29V17.62Zm8.89-5h-5V21h5V19.19h-2.72V17.72h2.55V15.83h-2.55v-1.4h2.72Zm-21.55,1.85h1.92V21h2.31V14.42h1.84V12.59h-6.06Z"/><path class="cls-1" d="M207.29,4.91a18,18,0,0,1,5.67.57,4.81,4.81,0,0,1,3.86,5.16,5,5,0,0,1-4.07,5.09,19.52,19.52,0,0,1-5.49.46Z"/><path class="cls-2" d="M42.18,8.63l5.58,12.58H36.61Z"/><path class="cls-1" d="M140.19,17.62h-3.34v3.45h-2.29V12.58h2.26v3.21h3.35V12.6h2.28V21h-2.26Z"/><path class="cls-1" d="M149.08,12.6v1.82h-2.72v1.41h2.55v1.89h-2.55v1.47H149v1.86h-5V12.57Z"/><path class="cls-1" d="M127.56,14.42V12.56h6.08v1.87H131.8v6.63h-2.32V14.42Z"/></svg>