<svg id="Layer_1" data-name="Layer 1" xmlns="http://www.w3.org/2000/svg" width="148" height="111.67" viewBox="0 0 148 111.67"><defs><style>.cls-1{fill:#969696;}</style></defs><title>logo-the-today-show</title><polygon class="cls-1" points="26.61 86.94 17.35 86.94 17.35 111.02 9.26 111.02 9.26 86.94 0 86.94 0 79.98 26.61 79.98 26.61 86.94"/><path class="cls-1" d="M44.43,107.89c5.22,0,7.22-4.61,7.22-9.22s-2-9.21-7.22-9.21-7.22,4.61-7.22,9.21,2,9.22,7.22,9.22Zm0-25.4c9.78,0,15.3,7.18,15.3,16.17s-5.52,16.17-15.3,16.17-15.3-7.17-15.3-16.17,5.51-16.17,15.3-16.17Z" transform="translate(-1 -3.17)"/><path class="cls-1" d="M71.35,107.23h3.83c6.13-.14,8.56-2.52,8.56-8.74,0-5.65-3-8.39-8.56-8.39H71.35v17.13ZM63.26,83.14H76.61c9.52,0,15.21,5.78,15.21,15.39,0,10.17-5.78,15.65-15.21,15.65H63.26v-31Z" transform="translate(-1 -3.17)"/><path class="cls-1" d="M104.35,102.62h7L108,91.75h-.09l-3.52,10.87Zm-.52-19.47H112l11.61,31h-8.43l-1.91-5.56H102.48l-2,5.56h-8.3l11.61-31Z" transform="translate(-1 -3.17)"/><polygon class="cls-1" points="136.69 99.45 136.69 111.02 128.61 111.02 128.61 99.45 117.31 79.98 126.48 79.98 132.65 92.58 138.83 79.98 148 79.98 136.69 99.45"/><path class="cls-1" d="M75,54.56A22.57,22.57,0,0,0,52.43,77.1H66.86a8.11,8.11,0,1,1,16.23,0H97.51A22.57,22.57,0,0,0,75,54.56Z" transform="translate(-1 -3.17)"/><path class="cls-1" d="M75,37.43A39.71,39.71,0,0,0,35.3,77.1H49.73a25.25,25.25,0,1,1,50.49,0h14.42A39.71,39.71,0,0,0,75,37.43Z" transform="translate(-1 -3.17)"/><path class="cls-1" d="M75,20.3a56.87,56.87,0,0,0-56.8,56.8H32.6a42.38,42.38,0,1,1,84.75,0h14.42A56.87,56.87,0,0,0,75,20.3Z" transform="translate(-1 -3.17)"/><path class="cls-1" d="M75,3.17A74,74,0,0,0,1,77.1H15.47a59.51,59.51,0,1,1,119,0h14.43A74,74,0,0,0,75,3.17Z" transform="translate(-1 -3.17)"/></svg>