<svg id="Layer_1" data-name="Layer 1" xmlns="http://www.w3.org/2000/svg" width="178" height="89.87" viewBox="0 0 178 89.87"><defs><style>.cls-1{fill:none;}.cls-2{fill:#969696;}</style></defs><title>logo-good-morning-america-edit</title><path class="cls-1" d="M0,9.87H178v80H0Z" transform="translate(0 0)"/><path class="cls-2" d="M63,20.2a10.07,10.07,0,0,0,10.13-9.74V9H62.92v4.06h4.5A4.29,4.29,0,0,1,63,15.53a4.89,4.89,0,0,1-5.27-5.27c0-2.4,1.15-5.42,5.09-5.42a5.08,5.08,0,0,1,4.4,1.94l.16.24h5.06l-.25-.71A10.1,10.1,0,1,0,63,20.2Zm81,21.32c5.46,0,10.09-4.34,10.09-9.45V30.62H143.94v4h4.48A4.29,4.29,0,0,1,144,37a4.8,4.8,0,0,1-5.24-5.11c0-2.3,1.15-5.27,5.07-5.27a5.11,5.11,0,0,1,4.38,1.89l.16.23h5l-.25-.69A10,10,0,1,0,144,41.52ZM84,20.2a10,10,0,1,0-10-10v.09h0A10,10,0,0,0,84,20.2ZM84,4.93a5.31,5.31,0,1,1-5.15,5.47v-.14A5.26,5.26,0,0,1,84,4.92ZM105.11,20.2a10,10,0,1,0-10-10v.09h0A10,10,0,0,0,105.11,20.2Zm0-15.27a5.31,5.31,0,1,1-5.11,5.5v-.17a5.26,5.26,0,0,1,5.14-5.35Zm23.08,13.69a9.31,9.31,0,0,0,5-8.3,9.73,9.73,0,0,0-3.45-7.41c-1.15-1-3.38-2.23-8.39-2.23h-5v19.2h5.08A15.06,15.06,0,0,0,128.19,18.62Zm-7-13.68c2.2,0,3.93.23,5.3,1.38a5.32,5.32,0,0,1,1.89,4.06,5,5,0,0,1-2.62,4.52,9,9,0,0,1-4.48.82h-.2V4.92ZM48,31.62v9.87h5V22.62H46.3L42.4,33.53l-4-10.91H31.75V41.5h5V31.69l3.81,9.81h3.63Zm15.82-9.34A9.79,9.79,0,1,0,73.9,32.13a10,10,0,0,0-10.08-9.84Zm0,14.89A5.11,5.11,0,1,1,68.9,32h0a5.08,5.08,0,0,1-5.08,5.07Zm23.25-3.88A6.66,6.66,0,0,0,89,28.71,6,6,0,0,0,86.7,24a7.2,7.2,0,0,0-4.77-1.32h-6.7V41.52h5V35.77l4.06,5.75h5.43L84.6,34.74a5.93,5.93,0,0,0,2.47-1.43Zm-6.9-6.54H81.8c2.59,0,2.71,1.81,2.71,2.17,0,.67-.26,2.22-2.71,2.22H80.17Zm30-4.13h4.45V41.5h-4.45ZM96,31l6.82,10.52H108V22.62h-5v10.5l-6.79-10.5H91.11V41.5H96Z" transform="translate(0 0)"/><path class="cls-2" d="M121.42,31l6.82,10.52h5.17V22.62h-5v10.5l-6.73-10.5h-5.09V41.5h4.84Zm35.82,13.39-10.56,25.2h7.44l1.67-4.19h8.43l1.68,4.19h7.44L163.2,44.36h-6Zm5.41,16.25h-5.38l2.73-8ZM23.83,44.36,13.27,69.56h7.44l1.67-4.19h8.43l1.68,4.19h7.44L29.81,44.36Zm5.4,16.26H23.85l2.69-8Zm25.33-1.39L49.19,44.36h-8.6v25.2H47V55.44l5.16,14.12H57l5.16-14.2v14.2H68.5V44.36H59.9Zm17.2,10.33H87.18V63.81H78.35V59.17h8.44V54H78.35V49.62h8.83V44.36H71.76Zm35.53-10.51a9.68,9.68,0,0,0,2.71-6.7,8.64,8.64,0,0,0-3.33-6.64c-1.67-1.22-3.7-1.36-6.82-1.36h-9v25.2h6.34V61.33l5.63,8.22h7.65l-6.57-8.66A7.31,7.31,0,0,0,107.29,59.05ZM97.18,49.62h2.6c4,0,4.19,2.62,4.19,3.15,0,1-.4,3.21-4.19,3.21h-2.6Zm16.66-5.21h6v25.2h-6Zm22.48,19.2a6.65,6.65,0,0,1,0-13.29,6.9,6.9,0,0,1,6,3.45h7.28a13.31,13.31,0,1,0,0,6.22h-7.23a6.9,6.9,0,0,1-6,3.62ZM14.15,83.18s64.4-18.66,159.41-1.64c-5.31.74-14.64,3.66-15.93,4.94C155.64,85.42,92.86,71.1,14.15,83.18Z" transform="translate(0 0)"/></svg>